<?xml version="1.0" ?><svg height="48px" version="1.1" viewBox="0 0 48 48" width="48px" xmlns="http://www.w3.org/2000/svg" xmlns:xlink="http://www.w3.org/1999/xlink"><title/><desc/><g fill="none" fill-rule="evenodd" id="Page-1" stroke="none" stroke-width="1"><g id="Artboard-Copy" transform="translate(-227.000000, -729.000000)"><path d="M249.019,765.541 C249.021,766.955 250.126,768 251.523,768 C252.918,768.002 253.994,766.828 253.992,765.414 L253.971,744.713 L259.687,750.478 C260.674,751.478 262.275,751.48 263.262,750.48 C264.248,749.482 264.246,747.861 263.258,746.861 L253.414,736.893 L253.344,736.824 C252.883,736.318 252.219,736.002 251.485,736 C250.751,736 250.09,736.314 249.628,736.82 L249.559,736.891 L239.738,746.834 C238.753,747.832 238.755,749.453 239.743,750.453 C240.732,751.457 242.331,751.457 243.318,750.459 L248.997,744.84 L249.019,765.541 Z" fill="#000000" id="arrow4"/><g id="slices" transform="translate(47.000000, 9.000000)"/></g></g></svg>